<?xml version="1.0" encoding="UTF-8" standalone="no"?>
<!-- Created with Inkscape (http://www.inkscape.org/) -->

<svg
   xmlns:dc="http://purl.org/dc/elements/1.1/"
   xmlns:cc="http://creativecommons.org/ns#"
   xmlns:rdf="http://www.w3.org/1999/02/22-rdf-syntax-ns#"
   xmlns:svg="http://www.w3.org/2000/svg"
   xmlns="http://www.w3.org/2000/svg"
   xmlns:xlink="http://www.w3.org/1999/xlink"
   xmlns:sodipodi="http://sodipodi.sourceforge.net/DTD/sodipodi-0.dtd"
   xmlns:inkscape="http://www.inkscape.org/namespaces/inkscape"
   id="svg2"
   version="1.1"
   inkscape:version="0.92.4 (5da689c313, 2019-01-14)"
   width="222.99213"
   height="109.60631"
   xml:space="preserve"
   sodipodi:docname="vorlage-etikettenpapier-60x30.svg"
   viewBox="0 0 209.05511 102.75591"><metadata
     id="metadata8"><rdf:RDF><cc:Work
         rdf:about=""><dc:format>image/svg+xml</dc:format><dc:type
           rdf:resource="http://purl.org/dc/dcmitype/StillImage" /><dc:title /></cc:Work></rdf:RDF></metadata><defs
     id="defs6"><inkscape:perspective
       sodipodi:type="inkscape:persp3d"
       inkscape:vp_x="0 : 0.49999999 : 1"
       inkscape:vp_y="0 : 999.99996 : 0"
       inkscape:vp_z="0.99999996 : 0.49999999 : 1"
       inkscape:persp3d-origin="0.49999998 : 0.33333331 : 1"
       id="perspective10" /><clipPath
       clipPathUnits="userSpaceOnUse"
       id="clipPath18"><path
         d="M 0,0 H 595.276 V 841.89 H 0 Z"
         id="path20"
         inkscape:connector-curvature="0" /></clipPath><inkscape:perspective
       id="perspective3107"
       inkscape:persp3d-origin="0.49999998 : 0.33333331 : 1"
       inkscape:vp_z="0.99999996 : 0.49999999 : 1"
       inkscape:vp_y="0 : 999.99996 : 0"
       inkscape:vp_x="0 : 0.49999999 : 1"
       sodipodi:type="inkscape:persp3d" /><inkscape:perspective
       id="perspective3166"
       inkscape:persp3d-origin="0.49999998 : 0.33333331 : 1"
       inkscape:vp_z="0.99999996 : 0.49999999 : 1"
       inkscape:vp_y="0 : 999.99996 : 0"
       inkscape:vp_x="0 : 0.49999999 : 1"
       sodipodi:type="inkscape:persp3d" /></defs><sodipodi:namedview
     pagecolor="#ffffff"
     bordercolor="#666666"
     borderopacity="1"
     objecttolerance="10"
     gridtolerance="10"
     guidetolerance="10"
     inkscape:pageopacity="0"
     inkscape:pageshadow="2"
     inkscape:window-width="956"
     inkscape:window-height="1015"
     id="namedview4"
     showgrid="false"
     inkscape:zoom="2.0829324"
     inkscape:cx="160.95173"
     inkscape:cy="77.863148"
     inkscape:window-x="960"
     inkscape:window-y="0"
     inkscape:window-maximized="0"
     inkscape:current-layer="barcode"
     showguides="true"
     inkscape:guide-bbox="true"
     units="mm"
     inkscape:snap-page="true" /><g
     id="etikett"
     transform="translate(-8,-947.60661)"><flowRoot
       transform="translate(-37.703501,896.77307)"
       style="font-style:normal;font-weight:normal;line-height:0.01%;font-family:'Nimbus Sans L';-inkscape-font-specification:'Nimbus Sans L';text-align:center;text-anchor:middle;fill:#000000;fill-opacity:1;stroke:none"
       id="flowRoot3561"
       xml:space="preserve"><flowRegion
         id="flowRegion3563"><rect
           y="134.18582"
           x="177.39415"
           height="16.083103"
           width="61.451828"
           id="rect3565" /></flowRegion><flowPara
         id="flowPara3567"
         style="font-size:14px;line-height:1.25">Nr ID</flowPara></flowRoot><g
       id="barcode"
       transform="matrix(0.7001413,0,0,0.51162498,123.59574,1002.6635)"
       style="stroke-width:1.06662476"><rect
   id="rect22"
   width="0"
   height="0"
   x="0"
   y="0"
   style="stroke-width:1.06662476" /><rect
   id="rect24"
   width="0"
   height="0"
   x="0"
   y="0"
   style="stroke-width:1.06662476" /><rect
   id="rect26"
   width="0"
   height="0"
   x="0"
   y="0"
   style="stroke-width:1.06662476" /><rect
   id="rect28"
   width="0"
   height="0"
   x="0"
   y="0"
   style="stroke-width:1.06662476" /><rect
   id="rect30"
   width="0"
   height="0"
   x="0"
   y="0"
   style="stroke-width:1.06662476" /><rect
   id="rect32"
   width="0"
   height="0"
   x="0"
   y="0"
   style="stroke-width:1.06662476" /><rect
   id="rect34"
   width="0"
   height="0"
   x="0"
   y="0"
   style="stroke-width:1.06662476" /><rect
   id="rect36"
   width="0"
   height="0"
   x="0"
   y="0"
   style="stroke-width:1.06662476" /><rect
   id="rect38"
   width="0"
   height="0"
   x="0"
   y="0"
   style="stroke-width:1.06662476" /><rect
   id="rect40"
   width="0"
   height="0"
   x="0"
   y="0"
   style="stroke-width:1.06662476" /><rect
   id="rect42"
   width="0"
   height="0"
   x="0"
   y="0"
   style="stroke-width:1.06662476" /><rect
   id="rect44"
   width="0"
   height="0"
   x="0"
   y="0"
   style="stroke-width:1.06662476" /><rect
   id="rect46"
   width="0"
   height="0"
   x="0"
   y="0"
   style="stroke-width:1.06662476" /><rect
   id="rect48"
   width="0"
   height="0"
   x="0"
   y="0"
   style="stroke-width:1.06662476" /><rect
   id="rect50"
   width="0"
   height="0"
   x="0"
   y="0"
   style="stroke-width:1.06662476" /><rect
   id="rect52"
   width="0"
   height="0"
   x="0"
   y="0"
   style="stroke-width:1.06662476" /><rect
   id="rect54"
   width="0"
   height="0"
   x="0"
   y="0"
   style="stroke-width:1.06662476" /><rect
   id="rect56"
   width="0"
   height="0"
   x="0"
   y="0"
   style="stroke-width:1.06662476" /><rect
   id="rect58"
   width="0"
   height="0"
   x="0"
   y="0"
   style="stroke-width:1.06662476" /><rect
   id="rect60"
   width="0"
   height="0"
   x="0"
   y="0"
   style="stroke-width:1.06662476" /><rect
   id="rect62"
   width="0"
   height="0"
   x="0"
   y="0"
   style="stroke-width:1.06662476" /><rect
   id="rect64"
   width="0"
   height="0"
   x="0"
   y="0"
   style="stroke-width:1.06662476" /><rect
   id="rect66"
   width="0"
   height="0"
   x="0"
   y="0"
   style="stroke-width:1.06662476" /><rect
   id="rect68"
   width="0"
   height="0"
   x="0"
   y="0"
   style="stroke-width:1.06662476" /><rect
   id="rect70"
   width="0"
   height="0"
   x="0"
   y="0"
   style="stroke-width:1.06662476" /><rect
   id="rect72"
   width="0"
   height="0"
   x="0"
   y="0"
   style="stroke-width:1.06662476" /><rect
   id="rect74"
   width="0"
   height="0"
   x="0"
   y="0"
   style="stroke-width:1.06662476" /><rect
   id="rect76"
   width="0"
   height="0"
   x="0"
   y="0"
   style="stroke-width:1.06662476" /><rect
   id="rect78"
   width="0"
   height="0"
   x="0"
   y="0"
   style="stroke-width:1.06662476" /><rect
   id="rect80"
   width="0"
   height="0"
   x="0"
   y="0"
   style="stroke-width:1.06662476" /><rect
   id="rect82"
   width="0"
   height="0"
   x="0"
   y="0"
   style="stroke-width:1.06662476" /><rect
   id="rect84"
   width="0"
   height="0"
   x="0"
   y="0"
   style="stroke-width:1.06662476" /><rect
   id="rect86"
   width="0"
   height="0"
   x="0"
   y="0"
   style="stroke-width:1.06662476" /><rect
   id="rect88"
   width="0"
   height="0"
   x="0"
   y="0"
   style="stroke-width:1.06662476" /><rect
   id="rect90"
   width="0"
   height="0"
   x="0"
   y="0"
   style="stroke-width:1.06662476" /><rect
   id="rect92"
   width="0"
   height="0"
   x="0"
   y="0"
   style="stroke-width:1.06662476" /><rect
   id="rect94"
   width="0"
   height="0"
   x="0"
   y="0"
   style="stroke-width:1.06662476" /><rect
   id="rect96"
   width="0"
   height="0"
   x="0"
   y="0"
   style="stroke-width:1.06662476" /><rect
   id="rect98"
   width="0"
   height="0"
   x="0"
   y="0"
   style="stroke-width:1.06662476" /><rect
   id="rect100"
   width="0"
   height="0"
   x="0"
   y="0"
   style="stroke-width:1.06662476" /><rect
   id="rect102"
   width="0"
   height="0"
   x="0"
   y="0"
   style="stroke-width:1.06662476" /><rect
   id="rect104"
   width="0"
   height="0"
   x="0"
   y="0"
   style="stroke-width:1.06662476" /><rect
   id="rect106"
   width="0"
   height="0"
   x="0"
   y="0"
   style="stroke-width:1.06662476" /><rect
   id="rect108"
   width="0"
   height="0"
   x="0"
   y="0"
   style="stroke-width:1.06662476" /><rect
   id="rect110"
   width="0"
   height="0"
   x="0"
   y="0"
   style="stroke-width:1.06662476" /><rect
   id="rect112"
   width="0"
   height="0"
   x="0"
   y="0"
   style="stroke-width:1.06662476" /><rect
   id="rect114"
   width="0"
   height="0"
   x="0"
   y="0"
   style="stroke-width:1.06662476" /><rect
   id="rect116"
   width="0"
   height="0"
   x="0"
   y="0"
   style="stroke-width:1.06662476" /><rect
   id="rect118"
   width="0"
   height="0"
   x="0"
   y="0"
   style="stroke-width:1.06662476" /><rect
   id="rect120"
   width="0"
   height="0"
   x="0"
   y="0"
   style="stroke-width:1.06662476" /><rect
   id="rect122"
   width="0"
   height="0"
   x="0"
   y="0"
   style="stroke-width:1.06662476" /><rect
   id="rect124"
   width="0"
   height="0"
   x="0"
   y="0"
   style="stroke-width:1.06662476" /><rect
   id="rect126"
   width="0"
   height="0"
   x="0"
   y="0"
   style="stroke-width:1.06662476" /><rect
   id="rect128"
   width="0"
   height="0"
   x="0"
   y="0"
   style="stroke-width:1.06662476" /><rect
   id="rect130"
   width="0"
   height="0"
   x="0"
   y="0"
   style="stroke-width:1.06662476" /><rect
   id="rect132"
   width="0"
   height="0"
   x="0"
   y="0"
   style="stroke-width:1.06662476" /><rect
   id="rect134"
   width="0"
   height="0"
   x="0"
   y="0"
   style="stroke-width:1.06662476" /><rect
   id="rect136"
   width="0"
   height="0"
   x="0"
   y="0"
   style="stroke-width:1.06662476" /><rect
   id="rect138"
   width="0"
   height="0"
   x="0"
   y="0"
   style="stroke-width:1.06662476" /><rect
   id="rect140"
   width="0"
   height="0"
   x="0"
   y="0"
   style="stroke-width:1.06662476" /><rect
   id="rect142"
   width="0"
   height="0"
   x="0"
   y="0"
   style="stroke-width:1.06662476" /><rect
   id="rect144"
   width="0"
   height="0"
   x="0"
   y="0"
   style="stroke-width:1.06662476" /><rect
   id="rect146"
   width="0"
   height="0"
   x="0"
   y="0"
   style="stroke-width:1.06662476" /><rect
   id="rect148"
   width="0"
   height="0"
   x="0"
   y="0"
   style="stroke-width:1.06662476" /><rect
   id="rect150"
   width="0"
   height="0"
   x="0"
   y="0"
   style="stroke-width:1.06662476" /><rect
   id="rect152"
   width="0"
   height="0"
   x="0"
   y="0"
   style="stroke-width:1.06662476" /><rect
   id="rect154"
   width="0"
   height="0"
   x="0"
   y="0"
   style="stroke-width:1.06662476" /><rect
   id="rect156"
   width="0"
   height="0"
   x="0"
   y="0"
   style="stroke-width:1.06662476" /><rect
   height="15mm"
   style="fill:#000000;stroke-width:1.13768828"
   width="0.33000001mm"
   x="6.5mm"
   y="1mm"
   id="rect158" />
    <rect
   height="15mm"
   style="fill:#ffffff;stroke-width:1.13768828"
   width="0.33000001mm"
   x="6.8299999mm"
   y="1mm"
   id="rect160" />
    <rect
   height="15mm"
   style="fill:#000000;stroke-width:1.13768828"
   width="0.33000001mm"
   x="7.1599998mm"
   y="1mm"
   id="rect162" />
    <rect
   height="15mm"
   style="fill:#ffffff;stroke-width:1.13768828"
   width="0.33000001mm"
   x="7.4899998mm"
   y="1mm"
   id="rect164" />
    <rect
   height="15mm"
   style="fill:#ffffff;stroke-width:1.13768828"
   width="0.33000001mm"
   x="7.8200002mm"
   y="1mm"
   id="rect166" />
    <rect
   height="15mm"
   style="fill:#000000;stroke-width:1.13768828"
   width="0.33000001mm"
   x="8.1499996mm"
   y="1mm"
   id="rect168" />
    <rect
   height="15mm"
   style="fill:#ffffff;stroke-width:1.13768828"
   width="0.33000001mm"
   x="8.4799995mm"
   y="1mm"
   id="rect170" />
    <rect
   height="15mm"
   style="fill:#ffffff;stroke-width:1.13768828"
   width="0.33000001mm"
   x="8.8100004mm"
   y="1mm"
   id="rect172" />
    <rect
   height="15mm"
   style="fill:#000000;stroke-width:1.13768828"
   width="0.33000001mm"
   x="9.1400003mm"
   y="1mm"
   id="rect174" />
    <rect
   height="15mm"
   style="fill:#000000;stroke-width:1.13768828"
   width="0.33000001mm"
   x="9.4700003mm"
   y="1mm"
   id="rect176" />
    <rect
   height="15mm"
   style="fill:#ffffff;stroke-width:1.13768828"
   width="0.33000001mm"
   x="9.8000002mm"
   y="1mm"
   id="rect178" />
    <rect
   height="15mm"
   style="fill:#ffffff;stroke-width:1.13768828"
   width="0.33000001mm"
   x="10.13mm"
   y="1mm"
   id="rect180" />
    <rect
   height="15mm"
   style="fill:#ffffff;stroke-width:1.13768828"
   width="0.33000001mm"
   x="10.46mm"
   y="1mm"
   id="rect182" />
    <rect
   height="15mm"
   style="fill:#000000;stroke-width:1.13768828"
   width="0.33000001mm"
   x="10.79mm"
   y="1mm"
   id="rect184" />
    <rect
   height="15mm"
   style="fill:#000000;stroke-width:1.13768828"
   width="0.33000001mm"
   x="11.12mm"
   y="1mm"
   id="rect186" />
    <rect
   height="15mm"
   style="fill:#ffffff;stroke-width:1.13768828"
   width="0.33000001mm"
   x="11.45mm"
   y="1mm"
   id="rect188" />
    <rect
   height="15mm"
   style="fill:#000000;stroke-width:1.13768828"
   width="0.33000001mm"
   x="11.78mm"
   y="1mm"
   id="rect190" />
    <rect
   height="15mm"
   style="fill:#ffffff;stroke-width:1.13768828"
   width="0.33000001mm"
   x="12.11mm"
   y="1mm"
   id="rect192" />
    <rect
   height="15mm"
   style="fill:#ffffff;stroke-width:1.13768828"
   width="0.33000001mm"
   x="12.44mm"
   y="1mm"
   id="rect194" />
    <rect
   height="15mm"
   style="fill:#ffffff;stroke-width:1.13768828"
   width="0.33000001mm"
   x="12.77mm"
   y="1mm"
   id="rect196" />
    <rect
   height="15mm"
   style="fill:#000000;stroke-width:1.13768828"
   width="0.33000001mm"
   x="13.1mm"
   y="1mm"
   id="rect198" />
    <rect
   height="15mm"
   style="fill:#000000;stroke-width:1.13768828"
   width="0.33000001mm"
   x="13.43mm"
   y="1mm"
   id="rect200" />
    <rect
   height="15mm"
   style="fill:#ffffff;stroke-width:1.13768828"
   width="0.33000001mm"
   x="13.76mm"
   y="1mm"
   id="rect202" />
    <rect
   height="15mm"
   style="fill:#000000;stroke-width:1.13768828"
   width="0.33000001mm"
   x="14.09mm"
   y="1mm"
   id="rect204" />
    <rect
   height="15mm"
   style="fill:#ffffff;stroke-width:1.13768828"
   width="0.33000001mm"
   x="14.42mm"
   y="1mm"
   id="rect206" />
    <rect
   height="15mm"
   style="fill:#ffffff;stroke-width:1.13768828"
   width="0.33000001mm"
   x="14.75mm"
   y="1mm"
   id="rect208" />
    <rect
   height="15mm"
   style="fill:#000000;stroke-width:1.13768828"
   width="0.33000001mm"
   x="15.08mm"
   y="1mm"
   id="rect210" />
    <rect
   height="15mm"
   style="fill:#000000;stroke-width:1.13768828"
   width="0.33000001mm"
   x="15.41mm"
   y="1mm"
   id="rect212" />
    <rect
   height="15mm"
   style="fill:#ffffff;stroke-width:1.13768828"
   width="0.33000001mm"
   x="15.74mm"
   y="1mm"
   id="rect214" />
    <rect
   height="15mm"
   style="fill:#ffffff;stroke-width:1.13768828"
   width="0.33000001mm"
   x="16.07mm"
   y="1mm"
   id="rect216" />
    <rect
   height="15mm"
   style="fill:#000000;stroke-width:1.13768828"
   width="0.33000001mm"
   x="16.4mm"
   y="1mm"
   id="rect218" />
    <rect
   height="15mm"
   style="fill:#ffffff;stroke-width:1.13768828"
   width="0.33000001mm"
   x="16.73mm"
   y="1mm"
   id="rect220" />
    <rect
   height="15mm"
   style="fill:#000000;stroke-width:1.13768828"
   width="0.33000001mm"
   x="17.059999mm"
   y="1mm"
   id="rect222" />
    <rect
   height="15mm"
   style="fill:#ffffff;stroke-width:1.13768828"
   width="0.33000001mm"
   x="17.389999mm"
   y="1mm"
   id="rect224" />
    <rect
   height="15mm"
   style="fill:#000000;stroke-width:1.13768828"
   width="0.33000001mm"
   x="17.719999mm"
   y="1mm"
   id="rect226" />
    <rect
   height="15mm"
   style="fill:#ffffff;stroke-width:1.13768828"
   width="0.33000001mm"
   x="18.049999mm"
   y="1mm"
   id="rect228" />
    <rect
   height="15mm"
   style="fill:#000000;stroke-width:1.13768828"
   width="0.33000001mm"
   x="18.379999mm"
   y="1mm"
   id="rect230" />
    <rect
   height="15mm"
   style="fill:#000000;stroke-width:1.13768828"
   width="0.33000001mm"
   x="18.709999mm"
   y="1mm"
   id="rect232" />
    <rect
   height="15mm"
   style="fill:#ffffff;stroke-width:1.13768828"
   width="0.33000001mm"
   x="19.040001mm"
   y="1mm"
   id="rect234" />
    <rect
   height="15mm"
   style="fill:#000000;stroke-width:1.13768828"
   width="0.33000001mm"
   x="19.370001mm"
   y="1mm"
   id="rect236" />
    <rect
   height="15mm"
   style="fill:#000000;stroke-width:1.13768828"
   width="0.33000001mm"
   x="19.700001mm"
   y="1mm"
   id="rect238" />
    <rect
   height="15mm"
   style="fill:#ffffff;stroke-width:1.13768828"
   width="0.33000001mm"
   x="20.030001mm"
   y="1mm"
   id="rect240" />
    <rect
   height="15mm"
   style="fill:#ffffff;stroke-width:1.13768828"
   width="0.33000001mm"
   x="20.360001mm"
   y="1mm"
   id="rect242" />
    <rect
   height="15mm"
   style="fill:#000000;stroke-width:1.13768828"
   width="0.33000001mm"
   x="20.690001mm"
   y="1mm"
   id="rect244" />
    <rect
   height="15mm"
   style="fill:#ffffff;stroke-width:1.13768828"
   width="0.33000001mm"
   x="21.02mm"
   y="1mm"
   id="rect246" />
    <rect
   height="15mm"
   style="fill:#ffffff;stroke-width:1.13768828"
   width="0.33000001mm"
   x="21.35mm"
   y="1mm"
   id="rect248" />
    <rect
   height="15mm"
   style="fill:#ffffff;stroke-width:1.13768828"
   width="0.33000001mm"
   x="21.68mm"
   y="1mm"
   id="rect250" />
    <rect
   height="15mm"
   style="fill:#ffffff;stroke-width:1.13768828"
   width="0.33000001mm"
   x="22.01mm"
   y="1mm"
   id="rect252" />
    <rect
   height="15mm"
   style="fill:#000000;stroke-width:1.13768828"
   width="0.33000001mm"
   x="22.34mm"
   y="1mm"
   id="rect254" />
    <rect
   height="15mm"
   style="fill:#ffffff;stroke-width:1.13768828"
   width="0.33000001mm"
   x="22.67mm"
   y="1mm"
   id="rect256" />
    <rect
   height="15mm"
   style="fill:#000000;stroke-width:1.13768828"
   width="0.33000001mm"
   x="23mm"
   y="1mm"
   id="rect258" />
    <rect
   height="15mm"
   style="fill:#ffffff;stroke-width:1.13768828"
   width="0.33000001mm"
   x="23.33mm"
   y="1mm"
   id="rect260" />
    <rect
   height="15mm"
   style="fill:#000000;stroke-width:1.13768828"
   width="0.33000001mm"
   x="23.66mm"
   y="1mm"
   id="rect262" />
    <rect
   height="15mm"
   style="fill:#000000;stroke-width:1.13768828"
   width="0.33000001mm"
   x="23.99mm"
   y="1mm"
   id="rect264" />
    <rect
   height="15mm"
   style="fill:#000000;stroke-width:1.13768828"
   width="0.33000001mm"
   x="24.32mm"
   y="1mm"
   id="rect266" />
    <rect
   height="15mm"
   style="fill:#ffffff;stroke-width:1.13768828"
   width="0.33000001mm"
   x="24.65mm"
   y="1mm"
   id="rect268" />
    <rect
   height="15mm"
   style="fill:#ffffff;stroke-width:1.13768828"
   width="0.33000001mm"
   x="24.98mm"
   y="1mm"
   id="rect270" />
    <rect
   height="15mm"
   style="fill:#000000;stroke-width:1.13768828"
   width="0.33000001mm"
   x="25.309999mm"
   y="1mm"
   id="rect272" />
    <rect
   height="15mm"
   style="fill:#000000;stroke-width:1.13768828"
   width="0.33000001mm"
   x="25.639999mm"
   y="1mm"
   id="rect274" />
    <rect
   height="15mm"
   style="fill:#ffffff;stroke-width:1.13768828"
   width="0.33000001mm"
   x="25.969999mm"
   y="1mm"
   id="rect276" />
    <rect
   height="15mm"
   style="fill:#000000;stroke-width:1.13768828"
   width="0.33000001mm"
   x="26.299999mm"
   y="1mm"
   id="rect278" />
    <rect
   height="15mm"
   style="fill:#000000;stroke-width:1.13768828"
   width="0.33000001mm"
   x="26.629999mm"
   y="1mm"
   id="rect280" />
    <rect
   height="15mm"
   style="fill:#ffffff;stroke-width:1.13768828"
   width="0.33000001mm"
   x="26.959999mm"
   y="1mm"
   id="rect282" />
    <rect
   height="15mm"
   style="fill:#ffffff;stroke-width:1.13768828"
   width="0.33000001mm"
   x="27.290001mm"
   y="1mm"
   id="rect284" />
    <rect
   height="15mm"
   style="fill:#000000;stroke-width:1.13768828"
   width="0.33000001mm"
   x="27.620001mm"
   y="1mm"
   id="rect286" />
    <rect
   height="15mm"
   style="fill:#ffffff;stroke-width:1.13768828"
   width="0.33000001mm"
   x="27.950001mm"
   y="1mm"
   id="rect288" />
    <rect
   height="15mm"
   style="fill:#000000;stroke-width:1.13768828"
   width="0.33000001mm"
   x="28.280001mm"
   y="1mm"
   id="rect290" />
    <rect
   height="15mm"
   style="fill:#ffffff;stroke-width:1.13768828"
   width="6.5mm"
   x="28.610001mm"
   y="1mm"
   id="rect292" />
    </g><path
       style="color:#000000;display:inline;overflow:visible;visibility:visible;fill:none;stroke:#ffffff;stroke-width:1;stroke-linecap:butt;stroke-linejoin:miter;stroke-miterlimit:4;stroke-dasharray:none;stroke-dashoffset:0;stroke-opacity:1;marker:none;enable-background:accumulate"
       d="m 11.14025,990.47861 v 56.43129 h 125.30464 v -43.2813 h 77.69536 v -13.14999 z"
       id="rect63165"
       sodipodi:nodetypes="ccccccc"
       inkscape:connector-curvature="0" /><flowRoot
       xml:space="preserve"
       style="font-style:normal;font-variant:normal;font-weight:normal;font-stretch:semi-condensed;line-height:0.01%;font-family:'DejaVu Sans';-inkscape-font-specification:'DejaVu Sans Semi-Condensed';text-align:start;writing-mode:lr-tb;text-anchor:start;fill:#000000;fill-opacity:1;stroke:none"
       id="flowRoot63170"
       transform="translate(-25.7035,886.69113)"><flowRegion
         id="flowRegion63172"><use
           x="0"
           y="0"
           xlink:href="#rect63165"
           id="use63174"
           width="744.09497"
           height="1052.3625"
           transform="translate(25.7035,-886.69113)" /></flowRegion><flowPara
         style="font-style:normal;font-variant:normal;font-weight:bold;font-stretch:semi-condensed;font-size:13px;line-height:110.00000238%;font-family:'DejaVu Sans';-inkscape-font-specification:'DejaVu Sans Bold Semi-Condensed';text-align:start;writing-mode:lr-tb;text-anchor:start"
         id="flowPara63178">TITEL</flowPara><flowPara
         style="font-style:normal;font-variant:normal;font-weight:bold;font-stretch:semi-condensed;font-size:11px;line-height:110.00000238%;font-family:'DejaVu Sans';-inkscape-font-specification:'DejaVu Sans Bold Semi-Condensed';text-align:start;writing-mode:lr-tb;text-anchor:start"
         id="flowPara63190">PREIS <flowSpan
   style="font-weight:normal;-inkscape-font-specification:'DejaVu Sans Semi-Condensed'"
   id="flowSpan33276">VERKAUFSEINHEIT</flowSpan></flowPara></flowRoot><flowRoot
       xml:space="preserve"
       id="flowRoot10341"
       style="font-style:normal;font-weight:normal;line-height:0.01%;font-family:'Nimbus Sans L';-inkscape-font-specification:'Nimbus Sans L';text-align:center;text-anchor:middle;fill:#000000;fill-opacity:1;stroke:none"
       transform="translate(-25.703501,898.69113)"><flowRegion
         id="flowRegion10343"><rect
           id="rect10345"
           width="206.43973"
           height="33.606464"
           x="32.646282"
           y="50.889816" /></flowRegion><flowPara
         id="flowPara10347"
         style="font-style:oblique;font-variant:normal;font-weight:normal;font-stretch:normal;font-size:9px;line-height:125%;font-family:'DejaVu Sans';-inkscape-font-specification:'DejaVu Sans Oblique';text-align:center;writing-mode:lr-tb;text-anchor:middle">ORT</flowPara></flowRoot></g><g
     inkscape:groupmode="layer"
     id="ignore"
     transform="translate(0,-949.60661)"><g
       id="g63161"
       transform="matrix(1.1630326,0,0,-1.072105,8.2284558,949.60661)"><path
         d="M 0,0 C -0.289,0 -7.075,-0.086 -7.075,-7.075 V -88.77 c 0,-0.288 0.085,-7.075 7.075,-7.075 h 165.6 c 0.289,0.001 7.075,0.086 7.075,7.075 V -7.075 C 172.675,-6.786 172.589,0 165.6,0 Z"
         style="fill:none;stroke:#c8c7c7;stroke-width:0.25;stroke-linecap:butt;stroke-linejoin:miter;stroke-miterlimit:4;stroke-dasharray:none;stroke-opacity:1"
         id="path63163"
         inkscape:connector-curvature="0" /></g></g><g
     inkscape:groupmode="layer"
     id="layer2"
     inkscape:label="Ebene"
     transform="translate(0,-949.60661)" /></svg>