<?xml version="1.0" encoding="UTF-8" standalone="no"?>
<!-- Created with Inkscape (http://www.inkscape.org/) -->

<svg
   xmlns:dc="http://purl.org/dc/elements/1.1/"
   xmlns:cc="http://creativecommons.org/ns#"
   xmlns:rdf="http://www.w3.org/1999/02/22-rdf-syntax-ns#"
   xmlns:svg="http://www.w3.org/2000/svg"
   xmlns="http://www.w3.org/2000/svg"
   xmlns:xlink="http://www.w3.org/1999/xlink"
   xmlns:sodipodi="http://sodipodi.sourceforge.net/DTD/sodipodi-0.dtd"
   xmlns:inkscape="http://www.inkscape.org/namespaces/inkscape"
   id="svg2"
   version="1.1"
   inkscape:version="0.47 r22583"
   width="744.095"
   height="1052.3625"
   xml:space="preserve"
   sodipodi:docname="vorlage-etikettenpapier-schubladenmagazin.svg"><metadata
     id="metadata8"><rdf:RDF><cc:Work
         rdf:about=""><dc:format>image/svg+xml</dc:format><dc:type
           rdf:resource="http://purl.org/dc/dcmitype/StillImage" /><dc:title /></cc:Work></rdf:RDF></metadata><defs
     id="defs6"><inkscape:perspective
       sodipodi:type="inkscape:persp3d"
       inkscape:vp_x="0 : 0.5 : 1"
       inkscape:vp_y="0 : 1000 : 0"
       inkscape:vp_z="1 : 0.5 : 1"
       inkscape:persp3d-origin="0.5 : 0.33333333 : 1"
       id="perspective10" /><clipPath
       clipPathUnits="userSpaceOnUse"
       id="clipPath18"><path
         d="m 0,0 595.276,0 0,841.89 L 0,841.89 0,0 z"
         id="path20" /></clipPath><inkscape:perspective
       id="perspective3107"
       inkscape:persp3d-origin="0.5 : 0.33333333 : 1"
       inkscape:vp_z="1 : 0.5 : 1"
       inkscape:vp_y="0 : 1000 : 0"
       inkscape:vp_x="0 : 0.5 : 1"
       sodipodi:type="inkscape:persp3d" /><inkscape:perspective
       id="perspective3166"
       inkscape:persp3d-origin="0.5 : 0.33333333 : 1"
       inkscape:vp_z="1 : 0.5 : 1"
       inkscape:vp_y="0 : 1000 : 0"
       inkscape:vp_x="0 : 0.5 : 1"
       sodipodi:type="inkscape:persp3d" /></defs><sodipodi:namedview
     pagecolor="#ffffff"
     bordercolor="#666666"
     borderopacity="1"
     objecttolerance="10"
     gridtolerance="10"
     guidetolerance="10"
     inkscape:pageopacity="0"
     inkscape:pageshadow="2"
     inkscape:window-width="1920"
     inkscape:window-height="1111"
     id="namedview4"
     showgrid="false"
     inkscape:zoom="2.0829324"
     inkscape:cx="210.79134"
     inkscape:cy="853.80294"
     inkscape:window-x="1918"
     inkscape:window-y="-3"
     inkscape:window-maximized="1"
     inkscape:current-layer="etikett"
     showguides="true"
     inkscape:guide-bbox="true"><sodipodi:guide
       orientation="0,1"
       position="-7.2013859,1075.8871"
       id="guide18514" /></sodipodi:namedview><g
     id="etikett"><flowRoot
       transform="translate(0,10.08194)"
       style="font-size:14px;font-style:normal;font-weight:normal;text-align:center;text-anchor:middle;fill:#000000;fill-opacity:1;stroke:none;font-family:Nimbus Sans L;-inkscape-font-specification:Nimbus Sans L"
       id="flowRoot3561"
       xml:space="preserve"><flowRegion
         id="flowRegion3563"><rect
           y="134.18582"
           x="177.39415"
           height="16.083103"
           width="61.451828"
           id="rect3565" /></flowRegion><flowPara
         id="flowPara3567">Nr ID</flowPara></flowRoot><g
       id="barcode"
       transform="matrix(0.74678801,0,0,0.54571185,161.29942,115.97269)"><rect
         id="rect2952"
         y="3.5433071"
         x="23.031496"
         width="1.1692914"
         style="fill:#000000"
         height="53.149605" /><rect
         id="rect2954"
         y="3.5433071"
         x="24.200787"
         width="1.1692914"
         style="fill:#ffffff"
         height="53.149605" /><rect
         id="rect2956"
         y="3.5433071"
         x="25.370079"
         width="1.1692914"
         style="fill:#000000"
         height="53.149605" /><rect
         id="rect2958"
         y="3.5433071"
         x="26.53937"
         width="1.1692914"
         style="fill:#ffffff"
         height="53.149605" /><rect
         id="rect2960"
         y="3.5433071"
         x="27.708662"
         width="1.1692914"
         style="fill:#000000"
         height="53.149605" /><rect
         id="rect2962"
         y="3.5433071"
         x="28.877951"
         width="1.1692914"
         style="fill:#ffffff"
         height="53.149605" /><rect
         id="rect2964"
         y="3.5433071"
         x="30.047243"
         width="1.1692914"
         style="fill:#ffffff"
         height="53.149605" /><rect
         id="rect2966"
         y="3.5433071"
         x="31.216537"
         width="1.1692914"
         style="fill:#ffffff"
         height="53.149605" /><rect
         id="rect2968"
         y="3.5433071"
         x="32.385826"
         width="1.1692914"
         style="fill:#000000"
         height="53.149605" /><rect
         id="rect2970"
         y="3.5433071"
         x="33.555119"
         width="1.1692914"
         style="fill:#000000"
         height="53.149605" /><rect
         id="rect2972"
         y="3.5433071"
         x="34.724411"
         width="1.1692914"
         style="fill:#ffffff"
         height="53.149605" /><rect
         id="rect2974"
         y="3.5433071"
         x="35.8937"
         width="1.1692914"
         style="fill:#ffffff"
         height="53.149605" /><rect
         id="rect2976"
         y="3.5433071"
         x="37.062992"
         width="1.1692914"
         style="fill:#ffffff"
         height="53.149605" /><rect
         id="rect2978"
         y="3.5433071"
         x="38.232285"
         width="1.1692914"
         style="fill:#000000"
         height="53.149605" /><rect
         id="rect2980"
         y="3.5433071"
         x="39.401573"
         width="1.1692914"
         style="fill:#000000"
         height="53.149605" /><rect
         id="rect2982"
         y="3.5433071"
         x="40.570866"
         width="1.1692914"
         style="fill:#ffffff"
         height="53.149605" /><rect
         id="rect2984"
         y="3.5433071"
         x="41.740158"
         width="1.1692914"
         style="fill:#000000"
         height="53.149605" /><rect
         id="rect2986"
         y="3.5433071"
         x="42.909447"
         width="1.1692914"
         style="fill:#ffffff"
         height="53.149605" /><rect
         id="rect2988"
         y="3.5433071"
         x="44.078739"
         width="1.1692914"
         style="fill:#ffffff"
         height="53.149605" /><rect
         id="rect2990"
         y="3.5433071"
         x="45.248032"
         width="1.1692914"
         style="fill:#ffffff"
         height="53.149605" /><rect
         id="rect2992"
         y="3.5433071"
         x="46.417324"
         width="1.1692914"
         style="fill:#000000"
         height="53.149605" /><rect
         id="rect2994"
         y="3.5433071"
         x="47.586617"
         width="1.1692914"
         style="fill:#000000"
         height="53.149605" /><rect
         id="rect2996"
         y="3.5433071"
         x="48.755905"
         width="1.1692914"
         style="fill:#ffffff"
         height="53.149605" /><rect
         id="rect2998"
         y="3.5433071"
         x="49.925198"
         width="1.1692914"
         style="fill:#000000"
         height="53.149605" /><rect
         id="rect3000"
         y="3.5433071"
         x="51.09449"
         width="1.1692914"
         style="fill:#ffffff"
         height="53.149605" /><rect
         id="rect3002"
         y="3.5433071"
         x="52.263779"
         width="1.1692914"
         style="fill:#000000"
         height="53.149605" /><rect
         id="rect3004"
         y="3.5433071"
         x="53.433071"
         width="1.1692914"
         style="fill:#000000"
         height="53.149605" /><rect
         id="rect3006"
         y="3.5433071"
         x="54.60236"
         width="1.1692914"
         style="fill:#ffffff"
         height="53.149605" /><rect
         id="rect3008"
         y="3.5433071"
         x="55.771652"
         width="1.1692914"
         style="fill:#000000"
         height="53.149605" /><rect
         id="rect3010"
         y="3.5433071"
         x="56.940945"
         width="1.1692914"
         style="fill:#000000"
         height="53.149605" /><rect
         id="rect3012"
         y="3.5433071"
         x="58.110233"
         width="1.1692914"
         style="fill:#000000"
         height="53.149605" /><rect
         id="rect3014"
         y="3.5433071"
         x="59.279526"
         width="1.1692914"
         style="fill:#ffffff"
         height="53.149605" /><rect
         id="rect3016"
         y="3.5433071"
         x="60.448818"
         width="1.1692914"
         style="fill:#000000"
         height="53.149605" /><rect
         id="rect3018"
         y="3.5433071"
         x="61.618107"
         width="1.1692914"
         style="fill:#ffffff"
         height="53.149605" /><rect
         id="rect3020"
         y="3.5433071"
         x="62.787399"
         width="1.1692914"
         style="fill:#000000"
         height="53.149605" /><rect
         id="rect3022"
         y="3.5433071"
         x="63.956692"
         width="1.1692914"
         style="fill:#ffffff"
         height="53.149605" /><rect
         id="rect3024"
         y="3.5433071"
         x="65.125984"
         width="1.1692914"
         style="fill:#000000"
         height="53.149605" /><rect
         id="rect3026"
         y="3.5433071"
         x="66.295273"
         width="1.1692914"
         style="fill:#ffffff"
         height="53.149605" /><rect
         id="rect3028"
         y="3.5433071"
         x="67.464569"
         width="1.1692914"
         style="fill:#000000"
         height="53.149605" /><rect
         id="rect3030"
         y="3.5433071"
         x="68.633858"
         width="1.1692914"
         style="fill:#000000"
         height="53.149605" /><rect
         id="rect3032"
         y="3.5433071"
         x="69.803154"
         width="1.1692914"
         style="fill:#000000"
         height="53.149605" /><rect
         id="rect3034"
         y="3.5433071"
         x="70.972443"
         width="1.1692914"
         style="fill:#ffffff"
         height="53.149605" /><rect
         id="rect3036"
         y="3.5433071"
         x="72.141731"
         width="1.1692914"
         style="fill:#ffffff"
         height="53.149605" /><rect
         id="rect3038"
         y="3.5433071"
         x="73.311028"
         width="1.1692914"
         style="fill:#000000"
         height="53.149605" /><rect
         id="rect3040"
         y="3.5433071"
         x="74.480316"
         width="1.1692914"
         style="fill:#000000"
         height="53.149605" /><rect
         id="rect3042"
         y="3.5433071"
         x="75.649605"
         width="1.1692914"
         style="fill:#000000"
         height="53.149605" /><rect
         id="rect3044"
         y="3.5433071"
         x="76.818901"
         width="1.1692914"
         style="fill:#ffffff"
         height="53.149605" /><rect
         id="rect3046"
         y="3.5433071"
         x="77.98819"
         width="1.1692914"
         style="fill:#ffffff"
         height="53.149605" /><rect
         id="rect3048"
         y="3.5433071"
         x="79.157478"
         width="1.1692914"
         style="fill:#000000"
         height="53.149605" /><rect
         id="rect3050"
         y="3.5433071"
         x="80.326775"
         width="1.1692914"
         style="fill:#ffffff"
         height="53.149605" /><rect
         id="rect3052"
         y="3.5433071"
         x="81.496063"
         width="1.1692914"
         style="fill:#000000"
         height="53.149605" /><rect
         id="rect3054"
         y="3.5433071"
         x="82.665352"
         width="1.1692914"
         style="fill:#000000"
         height="53.149605" /><rect
         id="rect3056"
         y="3.5433071"
         x="83.834648"
         width="1.1692914"
         style="fill:#000000"
         height="53.149605" /><rect
         id="rect3058"
         y="3.5433071"
         x="85.003937"
         width="1.1692914"
         style="fill:#ffffff"
         height="53.149605" /><rect
         id="rect3060"
         y="3.5433071"
         x="86.173225"
         width="1.1692914"
         style="fill:#ffffff"
         height="53.149605" /><rect
         id="rect3062"
         y="3.5433071"
         x="87.342522"
         width="1.1692914"
         style="fill:#000000"
         height="53.149605" /><rect
         id="rect3064"
         y="3.5433071"
         x="88.51181"
         width="1.1692914"
         style="fill:#ffffff"
         height="53.149605" /><rect
         id="rect3066"
         y="3.5433071"
         x="89.681099"
         width="1.1692914"
         style="fill:#000000"
         height="53.149605" /><rect
         id="rect3068"
         y="3.5433071"
         x="90.850395"
         width="1.1692914"
         style="fill:#ffffff"
         height="53.149605" /><rect
         id="rect3070"
         y="3.5433071"
         x="92.019684"
         width="1.1692914"
         style="fill:#ffffff"
         height="53.149605" /><rect
         id="rect3072"
         y="3.5433071"
         x="93.188972"
         width="1.1692914"
         style="fill:#000000"
         height="53.149605" /><rect
         id="rect3074"
         y="3.5433071"
         x="94.358261"
         width="1.1692914"
         style="fill:#ffffff"
         height="53.149605" /><rect
         id="rect3076"
         y="3.5433071"
         x="95.527557"
         width="1.1692914"
         style="fill:#ffffff"
         height="53.149605" /><rect
         id="rect3078"
         y="3.5433071"
         x="96.696854"
         width="1.1692914"
         style="fill:#ffffff"
         height="53.149605" /><rect
         id="rect3080"
         y="3.5433071"
         x="97.866142"
         width="1.1692914"
         style="fill:#000000"
         height="53.149605" /><rect
         id="rect3082"
         y="3.5433071"
         x="99.035439"
         width="1.1692914"
         style="fill:#ffffff"
         height="53.149605" /><rect
         id="rect3084"
         y="3.5433071"
         x="100.20473"
         width="1.1692914"
         style="fill:#000000"
         height="53.149605" /><rect
         id="rect3086"
         y="3.5433071"
         x="101.37402"
         width="23.031496"
         style="fill:#ffffff"
         height="53.149605" /></g><path
       style="color:#000000;fill:none;stroke:#ffffff;stroke-width:1;stroke-linecap:butt;stroke-linejoin:miter;stroke-miterlimit:4;stroke-opacity:1;stroke-dasharray:none;stroke-dashoffset:0;marker:none;visibility:visible;display:inline;overflow:visible;enable-background:accumulate"
       d="m 36.84375,103.78748 0,56.43127 140.1875,0 0,-43.28125 62.8125,0 0,-13.15002 -203,0 z"
       id="rect63165"
       sodipodi:nodetypes="ccccccc" /><flowRoot
       xml:space="preserve"
       style="font-size:11px;font-style:normal;font-variant:normal;font-weight:normal;font-stretch:semi-condensed;text-align:start;line-height:125%;writing-mode:lr-tb;text-anchor:start;fill:#000000;fill-opacity:1;stroke:none;font-family:DejaVu Sans;-inkscape-font-specification:DejaVu Sans Semi-Condensed"
       id="flowRoot63170"><flowRegion
         id="flowRegion63172"><use
           x="0"
           y="0"
           xlink:href="#rect63165"
           id="use63174"
           width="744.09497"
           height="1052.3625" /></flowRegion><flowPara
         style="font-size:13px;font-style:normal;font-variant:normal;font-weight:bold;font-stretch:semi-condensed;text-align:start;line-height:110.00000238%;writing-mode:lr-tb;text-anchor:start;font-family:DejaVu Sans;-inkscape-font-specification:DejaVu Sans Bold Semi-Condensed"
         id="flowPara63178">TITEL</flowPara><flowPara
         style="font-size:11px;font-style:normal;font-variant:normal;font-weight:bold;font-stretch:semi-condensed;text-align:start;line-height:110.00000238%;writing-mode:lr-tb;text-anchor:start;font-family:DejaVu Sans;-inkscape-font-specification:DejaVu Sans Bold Semi-Condensed"
         id="flowPara63190">PREIS <flowSpan
   style="font-weight:normal;-inkscape-font-specification:DejaVu Sans Semi-Condensed"
   id="flowSpan33276">VERKAUFSEINHEIT</flowSpan></flowPara></flowRoot><flowRoot
       xml:space="preserve"
       id="flowRoot10341"
       style="font-size:14px;font-style:normal;font-weight:normal;text-align:center;text-anchor:middle;fill:#000000;fill-opacity:1;stroke:none;font-family:Nimbus Sans L;-inkscape-font-specification:Nimbus Sans L"><flowRegion
         id="flowRegion10343"><rect
           id="rect10345"
           width="206.43973"
           height="33.606464"
           x="32.646282"
           y="50.889816" /></flowRegion><flowPara
         id="flowPara10347"
         style="font-size:9px;font-style:oblique;font-variant:normal;font-weight:normal;font-stretch:normal;text-align:center;line-height:125%;writing-mode:lr-tb;text-anchor:middle;font-family:DejaVu Sans;-inkscape-font-specification:DejaVu Sans Oblique">ORT</flowPara></flowRoot></g><g
     inkscape:groupmode="layer"
     id="ignore"><g
       transform="matrix(1.25,0,0,-1.25,34.54725,165.98325)"
       id="g26"><path
         id="path28"
         style="fill:none;stroke:#c8c7c7;stroke-width:0.25;stroke-linecap:butt;stroke-linejoin:miter;stroke-miterlimit:4;stroke-opacity:1;stroke-dasharray:none"
         d="m 0,0 c -0.289,0 -7.075,-0.086 -7.075,-7.075 l 0,-81.695 c 0,-0.288 0.085,-7.075 7.075,-7.075 l 165.6,0 c 0.289,0.001 7.075,0.086 7.075,7.075 l 0,81.695 C 172.675,-6.786 172.589,0 165.6,0 L 0,0 0,0 z" /></g><g
       transform="matrix(1.25,0,0,-1.25,34.54725,286.10137)"
       id="g30"><path
         id="path32"
         style="fill:none;stroke:#c8c7c7;stroke-width:0.25;stroke-linecap:butt;stroke-linejoin:miter;stroke-miterlimit:4;stroke-opacity:1;stroke-dasharray:none"
         d="m 0,0 c -0.289,0 -7.075,-0.086 -7.075,-7.075 l 0,-81.695 c 0,-0.288 0.085,-7.075 7.075,-7.075 l 165.6,0 c 0.289,0.001 7.075,0.086 7.075,7.075 l 0,81.695 C 172.675,-6.786 172.589,0 165.6,0 L 0,0 0,0 z" /></g><g
       transform="matrix(1.25,0,0,-1.25,34.54725,406.2195)"
       id="g34"><path
         id="path36"
         style="fill:none;stroke:#c8c7c7;stroke-width:0.25;stroke-linecap:butt;stroke-linejoin:miter;stroke-miterlimit:4;stroke-opacity:1;stroke-dasharray:none"
         d="m 0,0 c -0.289,0 -7.075,-0.086 -7.075,-7.075 l 0,-81.695 c 0,-0.288 0.085,-7.074 7.075,-7.074 l 165.6,0 c 0.289,0 7.075,0.085 7.075,7.074 l 0,81.695 C 172.675,-6.786 172.589,0 165.6,0 L 0,0 0,0 z" /></g><g
       transform="matrix(1.25,0,0,-1.25,34.54725,526.33762)"
       id="g38"><path
         id="path40"
         style="fill:none;stroke:#c8c7c7;stroke-width:0.25;stroke-linecap:butt;stroke-linejoin:miter;stroke-miterlimit:4;stroke-opacity:1;stroke-dasharray:none"
         d="m 0,0 c -0.289,0 -7.075,-0.086 -7.075,-7.075 l 0,-81.695 c 0,-0.288 0.085,-7.074 7.075,-7.074 l 165.6,0 c 0.289,0 7.075,0.085 7.075,7.074 l 0,81.695 C 172.675,-6.786 172.589,0 165.6,0 L 0,0 0,0 z" /></g><g
       transform="matrix(1.25,0,0,-1.25,34.54725,646.45575)"
       id="g42"><path
         id="path44"
         style="fill:none;stroke:#c8c7c7;stroke-width:0.25;stroke-linecap:butt;stroke-linejoin:miter;stroke-miterlimit:4;stroke-opacity:1;stroke-dasharray:none"
         d="m 0,0 c -0.289,0 -7.075,-0.086 -7.075,-7.075 l 0,-81.695 c 0,-0.288 0.085,-7.074 7.075,-7.074 l 165.6,0 c 0.289,0 7.075,0.085 7.075,7.074 l 0,81.695 C 172.675,-6.786 172.589,0 165.6,0 L 0,0 0,0 z" /></g><g
       transform="matrix(1.25,0,0,-1.25,34.54725,766.57387)"
       id="g46"><path
         id="path48"
         style="fill:none;stroke:#c8c7c7;stroke-width:0.25;stroke-linecap:butt;stroke-linejoin:miter;stroke-miterlimit:4;stroke-opacity:1;stroke-dasharray:none"
         d="m 0,0 c -0.289,0 -7.075,-0.086 -7.075,-7.075 l 0,-81.695 c 0,-0.288 0.085,-7.074 7.075,-7.074 l 165.6,0 c 0.289,0 7.075,0.085 7.075,7.074 l 0,81.695 C 172.675,-6.786 172.589,0 165.6,0 L 0,0 0,0 z" /></g><g
       transform="matrix(1.25,0,0,-1.25,34.54725,886.692)"
       id="g50"><path
         id="path52"
         style="fill:none;stroke:#c8c7c7;stroke-width:0.25;stroke-linecap:butt;stroke-linejoin:miter;stroke-miterlimit:4;stroke-opacity:1;stroke-dasharray:none"
         d="m 0,0 c -0.289,0 -7.075,-0.086 -7.075,-7.075 l 0,-81.695 c 0,-0.288 0.085,-7.074 7.075,-7.074 l 165.6,0 c 0.289,0 7.075,0.085 7.075,7.074 l 0,81.695 C 172.675,-6.786 172.589,0 165.6,0 L 0,0 0,0 z" /></g><g
       transform="matrix(1.25,0,0,-1.25,268.54725,45.865125)"
       id="g54"><path
         id="path56"
         style="fill:none;stroke:#c8c7c7;stroke-width:0.25;stroke-linecap:butt;stroke-linejoin:miter;stroke-miterlimit:4;stroke-opacity:1;stroke-dasharray:none"
         d="m 0,0 c -0.289,0 -7.075,-0.086 -7.075,-7.075 l 0,-81.695 c 0,-0.288 0.085,-7.075 7.075,-7.075 l 165.6,0 c 0.289,0.001 7.075,0.086 7.075,7.075 l 0,81.695 C 172.675,-6.786 172.589,0 165.6,0 L 0,0 0,0 z" /></g><g
       transform="matrix(1.25,0,0,-1.25,268.54725,165.98325)"
       id="g58"><path
         id="path60"
         style="fill:none;stroke:#c8c7c7;stroke-width:0.25;stroke-linecap:butt;stroke-linejoin:miter;stroke-miterlimit:4;stroke-opacity:1;stroke-dasharray:none"
         d="m 0,0 c -0.289,0 -7.075,-0.086 -7.075,-7.075 l 0,-81.695 c 0,-0.288 0.085,-7.075 7.075,-7.075 l 165.6,0 c 0.289,0.001 7.075,0.086 7.075,7.075 l 0,81.695 C 172.675,-6.786 172.589,0 165.6,0 L 0,0 0,0 z" /></g><g
       transform="matrix(1.25,0,0,-1.25,268.54725,286.10137)"
       id="g62"><path
         id="path64"
         style="fill:none;stroke:#c8c7c7;stroke-width:0.25;stroke-linecap:butt;stroke-linejoin:miter;stroke-miterlimit:4;stroke-opacity:1;stroke-dasharray:none"
         d="m 0,0 c -0.289,0 -7.075,-0.086 -7.075,-7.075 l 0,-81.695 c 0,-0.288 0.085,-7.075 7.075,-7.075 l 165.6,0 c 0.289,0.001 7.075,0.086 7.075,7.075 l 0,81.695 C 172.675,-6.786 172.589,0 165.6,0 L 0,0 0,0 z" /></g><g
       transform="matrix(1.25,0,0,-1.25,268.54725,406.2195)"
       id="g66"><path
         id="path68"
         style="fill:none;stroke:#c8c7c7;stroke-width:0.25;stroke-linecap:butt;stroke-linejoin:miter;stroke-miterlimit:4;stroke-opacity:1;stroke-dasharray:none"
         d="m 0,0 c -0.289,0 -7.075,-0.086 -7.075,-7.075 l 0,-81.695 c 0,-0.288 0.085,-7.074 7.075,-7.074 l 165.6,0 c 0.289,0 7.075,0.085 7.075,7.074 l 0,81.695 C 172.675,-6.786 172.589,0 165.6,0 L 0,0 0,0 z" /></g><g
       transform="matrix(1.25,0,0,-1.25,268.54725,526.33762)"
       id="g70"><path
         id="path72"
         style="fill:none;stroke:#c8c7c7;stroke-width:0.25;stroke-linecap:butt;stroke-linejoin:miter;stroke-miterlimit:4;stroke-opacity:1;stroke-dasharray:none"
         d="m 0,0 c -0.289,0 -7.075,-0.086 -7.075,-7.075 l 0,-81.695 c 0,-0.288 0.085,-7.074 7.075,-7.074 l 165.6,0 c 0.289,0 7.075,0.085 7.075,7.074 l 0,81.695 C 172.675,-6.786 172.589,0 165.6,0 L 0,0 0,0 z" /></g><g
       transform="matrix(1.25,0,0,-1.25,268.54725,646.45575)"
       id="g74"><path
         id="path76"
         style="fill:none;stroke:#c8c7c7;stroke-width:0.25;stroke-linecap:butt;stroke-linejoin:miter;stroke-miterlimit:4;stroke-opacity:1;stroke-dasharray:none"
         d="m 0,0 c -0.289,0 -7.075,-0.086 -7.075,-7.075 l 0,-81.695 c 0,-0.288 0.085,-7.074 7.075,-7.074 l 165.6,0 c 0.289,0 7.075,0.085 7.075,7.074 l 0,81.695 C 172.675,-6.786 172.589,0 165.6,0 L 0,0 0,0 z" /></g><g
       transform="matrix(1.25,0,0,-1.25,268.54725,766.57387)"
       id="g78"><path
         id="path80"
         style="fill:none;stroke:#c8c7c7;stroke-width:0.25;stroke-linecap:butt;stroke-linejoin:miter;stroke-miterlimit:4;stroke-opacity:1;stroke-dasharray:none"
         d="m 0,0 c -0.289,0 -7.075,-0.086 -7.075,-7.075 l 0,-81.695 c 0,-0.288 0.085,-7.074 7.075,-7.074 l 165.6,0 c 0.289,0 7.075,0.085 7.075,7.074 l 0,81.695 C 172.675,-6.786 172.589,0 165.6,0 L 0,0 0,0 z" /></g><g
       transform="matrix(1.25,0,0,-1.25,268.54725,886.692)"
       id="g82"><path
         id="path84"
         style="fill:none;stroke:#c8c7c7;stroke-width:0.25;stroke-linecap:butt;stroke-linejoin:miter;stroke-miterlimit:4;stroke-opacity:1;stroke-dasharray:none"
         d="m 0,0 c -0.289,0 -7.075,-0.086 -7.075,-7.075 l 0,-81.695 c 0,-0.288 0.085,-7.074 7.075,-7.074 l 165.6,0 c 0.289,0 7.075,0.085 7.075,7.074 l 0,81.695 C 172.675,-6.786 172.589,0 165.6,0 L 0,0 0,0 z" /></g><g
       transform="matrix(1.25,0,0,-1.25,502.56175,46.021375)"
       id="g86"><path
         id="path88"
         style="fill:none;stroke:#c8c7c7;stroke-width:0.25;stroke-linecap:butt;stroke-linejoin:miter;stroke-miterlimit:4;stroke-opacity:1;stroke-dasharray:none"
         d="m 0,0 c -0.289,0 -7.075,-0.086 -7.075,-7.075 l 0,-81.695 c 0,-0.288 0.085,-7.075 7.075,-7.075 l 165.6,0 c 0.289,0.001 7.075,0.086 7.075,7.075 l 0,81.695 C 172.675,-6.786 172.589,0 165.6,0 L 0,0 0,0 z" /></g><g
       transform="matrix(1.25,0,0,-1.25,502.56175,166.1395)"
       id="g90"><path
         id="path92"
         style="fill:none;stroke:#c8c7c7;stroke-width:0.25;stroke-linecap:butt;stroke-linejoin:miter;stroke-miterlimit:4;stroke-opacity:1;stroke-dasharray:none"
         d="m 0,0 c -0.289,0 -7.075,-0.086 -7.075,-7.075 l 0,-81.695 c 0,-0.288 0.085,-7.075 7.075,-7.075 l 165.6,0 c 0.289,0.001 7.075,0.086 7.075,7.075 l 0,81.695 C 172.675,-6.786 172.589,0 165.6,0 L 0,0 0,0 z" /></g><g
       transform="matrix(1.25,0,0,-1.25,502.56175,286.25762)"
       id="g94"><path
         id="path96"
         style="fill:none;stroke:#c8c7c7;stroke-width:0.25;stroke-linecap:butt;stroke-linejoin:miter;stroke-miterlimit:4;stroke-opacity:1;stroke-dasharray:none"
         d="m 0,0 c -0.289,0 -7.075,-0.086 -7.075,-7.075 l 0,-81.695 c 0,-0.288 0.085,-7.075 7.075,-7.075 l 165.6,0 c 0.289,0.001 7.075,0.086 7.075,7.075 l 0,81.695 C 172.675,-6.786 172.589,0 165.6,0 L 0,0 0,0 z" /></g><g
       transform="matrix(1.25,0,0,-1.25,502.56175,406.37575)"
       id="g98"><path
         id="path100"
         style="fill:none;stroke:#c8c7c7;stroke-width:0.25;stroke-linecap:butt;stroke-linejoin:miter;stroke-miterlimit:4;stroke-opacity:1;stroke-dasharray:none"
         d="m 0,0 c -0.289,0 -7.075,-0.086 -7.075,-7.075 l 0,-81.695 c 0,-0.288 0.085,-7.074 7.075,-7.074 l 165.6,0 c 0.289,0 7.075,0.085 7.075,7.074 l 0,81.695 C 172.675,-6.786 172.589,0 165.6,0 L 0,0 0,0 z" /></g><g
       transform="matrix(1.25,0,0,-1.25,502.56175,526.49387)"
       id="g102"><path
         id="path104"
         style="fill:none;stroke:#c8c7c7;stroke-width:0.25;stroke-linecap:butt;stroke-linejoin:miter;stroke-miterlimit:4;stroke-opacity:1;stroke-dasharray:none"
         d="m 0,0 c -0.289,0 -7.075,-0.086 -7.075,-7.075 l 0,-81.695 c 0,-0.288 0.085,-7.074 7.075,-7.074 l 165.6,0 c 0.289,0 7.075,0.085 7.075,7.074 l 0,81.695 C 172.675,-6.786 172.589,0 165.6,0 L 0,0 0,0 z" /></g><g
       transform="matrix(1.25,0,0,-1.25,502.56175,646.612)"
       id="g106"><path
         id="path108"
         style="fill:none;stroke:#c8c7c7;stroke-width:0.25;stroke-linecap:butt;stroke-linejoin:miter;stroke-miterlimit:4;stroke-opacity:1;stroke-dasharray:none"
         d="m 0,0 c -0.289,0 -7.075,-0.086 -7.075,-7.075 l 0,-81.695 c 0,-0.288 0.085,-7.074 7.075,-7.074 l 165.6,0 c 0.289,0 7.075,0.085 7.075,7.074 l 0,81.695 C 172.675,-6.786 172.589,0 165.6,0 L 0,0 0,0 z" /></g><g
       transform="matrix(1.25,0,0,-1.25,502.56175,766.73012)"
       id="g110"><path
         id="path112"
         style="fill:none;stroke:#c8c7c7;stroke-width:0.25;stroke-linecap:butt;stroke-linejoin:miter;stroke-miterlimit:4;stroke-opacity:1;stroke-dasharray:none"
         d="m 0,0 c -0.289,0 -7.075,-0.086 -7.075,-7.075 l 0,-81.695 c 0,-0.288 0.085,-7.074 7.075,-7.074 l 165.6,0 c 0.289,0 7.075,0.085 7.075,7.074 l 0,81.695 C 172.675,-6.786 172.589,0 165.6,0 L 0,0 0,0 z" /></g><g
       transform="matrix(1.25,0,0,-1.25,502.56175,886.84825)"
       id="g114"><path
         id="path116"
         style="fill:none;stroke:#c8c7c7;stroke-width:0.25;stroke-linecap:butt;stroke-linejoin:miter;stroke-miterlimit:4;stroke-opacity:1;stroke-dasharray:none"
         d="m 0,0 c -0.289,0 -7.075,-0.086 -7.075,-7.075 l 0,-81.695 c 0,-0.288 0.085,-7.074 7.075,-7.074 l 165.6,0 c 0.289,0 7.075,0.085 7.075,7.074 l 0,81.695 C 172.675,-6.786 172.589,0 165.6,0 L 0,0 0,0 z" /></g><g
       id="g63161"
       transform="matrix(1.25,0,0,-1.25,34.54725,45.865125)"><path
         d="m 0,0 c -0.289,0 -7.075,-0.086 -7.075,-7.075 l 0,-81.695 c 0,-0.288 0.085,-7.075 7.075,-7.075 l 165.6,0 c 0.289,0.001 7.075,0.086 7.075,7.075 l 0,81.695 C 172.675,-6.786 172.589,0 165.6,0 L 0,0 0,0 z"
         style="fill:none;stroke:#c8c7c7;stroke-width:0.25;stroke-linecap:butt;stroke-linejoin:miter;stroke-miterlimit:4;stroke-opacity:1;stroke-dasharray:none"
         id="path63163" /></g></g><g
     inkscape:groupmode="layer"
     id="layer2"
     inkscape:label="Ebene" /></svg>